<svg xmlns="http://www.w3.org/2000/svg" viewBox="0 0 16 16" fill="currentColor">
  <!-- Document -->
  <path d="M3 1h7l3 3v10a1 1 0 0 1-1 1H3a1 1 0 0 1-1-1V2a1 1 0 0 1 1-1zm0 1v12h9V5h-3V2H3zm7 0v2h2l-2-2z"/>
  <!-- Lines on document -->
  <path d="M4 7h5v1H4V7zm0 2h4v1H4V9z"/>
  <!-- Magnifying glass -->
  <circle cx="10.5" cy="11.5" r="2.5" fill="none" stroke="currentColor" stroke-width="1.2"/>
  <line x1="12.5" y1="13.5" x2="14.5" y2="15.5" stroke="currentColor" stroke-width="1.2" stroke-linecap="round"/>
</svg>
